<svg width="28" height="28" viewBox="0 0 28 28" fill="none" xmlns="http://www.w3.org/2000/svg">
<path d="M0.306641 13.9981C0.306641 6.44949 6.4512 0.304932 13.9998 0.304932C21.553 0.304932 27.693 6.44949 27.693 13.9981C27.693 17.0365 26.7178 19.9034 24.8758 22.3097L18.0089 15.4428C18.1804 14.9733 18.2662 14.4857 18.2662 13.9936C18.2662 11.6414 16.352 9.72722 13.9998 9.72722C11.6476 9.72722 9.73344 11.6414 9.73344 13.9936C9.73344 14.4857 9.81924 14.9733 9.99074 15.4428L3.12383 22.3097C1.28182 19.9079 0.306641 17.0365 0.306641 13.9981Z" fill="white"/>
<path d="M11.4896 17.2307L13.9998 13.3164L16.51 17.2261L23.3137 24.0299C20.7719 26.3911 17.4716 27.6913 13.9998 27.6913C10.528 27.6913 7.22772 26.3911 4.68592 24.0299L11.4896 17.2307Z" fill="white"/>
</svg>
