<?xml version="1.0" standalone="no"?>
<!DOCTYPE svg PUBLIC "-//W3C//DTD SVG 20010904//EN"
 "http://www.w3.org/TR/2001/REC-SVG-20010904/DTD/svg10.dtd">
<svg version="1.0" xmlns="http://www.w3.org/2000/svg"
 width="584.000000pt" height="584.000000pt" viewBox="0 0 584.000000 584.000000"
 preserveAspectRatio="xMidYMid meet">
<metadata>
Created by potrace 1.14, written by Peter Selinger 2001-2017
</metadata>
<g transform="translate(0.000000,584.000000) scale(0.100000,-0.100000)"
fill="#000000" stroke="none">
<path d="M2729 5836 c-2 -2 -40 -6 -84 -10 -84 -7 -96 -8 -240 -32 -142 -24
-475 -115 -520 -142 -5 -4 -16 -7 -23 -8 -6 -1 -31 -11 -55 -22 -23 -11 -60
-27 -82 -37 -62 -28 -166 -79 -210 -104 -59 -34 -209 -125 -215 -131 -3 -3
-27 -20 -55 -39 -302 -207 -605 -526 -807 -851 -76 -122 -202 -379 -252 -513
-64 -173 -136 -447 -152 -582 -3 -22 -7 -49 -9 -60 -20 -96 -28 -527 -12 -668
15 -137 47 -321 73 -422 3 -11 7 -31 10 -44 3 -13 19 -67 35 -120 144 -452
399 -872 726 -1195 129 -128 133 -132 333 -289 167 -131 492 -305 735 -392
240 -87 477 -139 730 -162 159 -15 469 -10 650 11 156 18 427 84 595 146 47
17 90 32 95 34 17 5 65 26 194 88 726 344 1289 1002 1525 1781 20 64 37 127
40 139 2 13 11 55 20 93 47 208 61 353 61 620 0 174 -7 293 -21 385 -19 128
-38 226 -56 295 -11 44 -22 90 -24 103 -3 13 -11 40 -18 60 -7 20 -26 75 -41
122 -16 47 -31 90 -35 95 -4 6 -11 21 -15 35 -15 50 -99 225 -155 325 -160
283 -382 558 -620 765 -41 36 -77 67 -80 70 -3 3 -32 25 -65 50 -33 25 -62 48
-65 51 -3 3 -57 40 -120 81 -128 84 -302 178 -430 233 -47 20 -94 40 -105 45
-48 22 -207 73 -309 100 -158 41 -265 63 -376 75 -25 3 -61 8 -80 11 -38 6
-485 15 -491 10z"/>
</g>
</svg>
